<svg xmlns="http://www.w3.org/2000/svg" width="24" height="24"><rect id="1_1" width="4" height="4" x="2" y="2" fill="#bfbfbf" stroke="#000"/><rect id="1_2" width="4" height="4" x="6" y="2" fill="#7f7f7f" stroke="#000"/><rect id="1_3" width="4" height="4" x="10" y="2" fill="#bfbfbf" stroke="#000"/><rect id="1_4" width="4" height="4" x="14" y="2" fill="#7f7f7f" stroke="#000"/><rect id="1_5" width="4" height="4" x="18" y="2" fill="#bfbfbf" stroke="#000"/><rect id="2_1" width="4" height="4" x="2" y="6" fill="#7f7f7f" stroke="#000"/><rect id="2_2" width="4" height="4" x="6" y="6" fill="#bfbfbf" stroke="#000"/><rect id="2_3" width="4" height="4" x="10" y="6" fill="#7f7f7f" stroke="#000"/><rect id="2_4" width="4" height="4" x="14" y="6" fill="#bfbfbf" stroke="#000"/><rect id="2_5" width="4" height="4" x="18" y="6" fill="#7f7f7f" stroke="#000"/><rect id="3_3" width="4" height="4" x="2" y="10" fill="#bfbfbf" stroke="#000"/><rect id="3_4" width="4" height="4" x="6" y="10" fill="#7f7f7f" stroke="#000"/><rect id="3_5" width="4" height="4" x="10" y="10" fill="#bfbfbf" stroke="#000"/><rect id="3_6" width="4" height="4" x="14" y="10" fill="#7f7f7f" stroke="#000"/><rect id="3_7" width="4" height="4" x="18" y="10" fill="#bfbfbf" stroke="#000"/><rect id="s_9" width="4" height="4" x="2" y="14" fill="#7f7f7f" stroke="#000"/><rect id="svg_10" width="4" height="4" x="6" y="14" fill="#bfbfbf" stroke="#000"/><rect id="svg_11" width="4" height="4" x="10" y="14" fill="#7f7f7f" stroke="#000"/><rect id="svg_12" width="4" height="4" x="14" y="14" fill="#bfbfbf" stroke="#000"/><rect id="svg_13" width="4" height="4" x="18" y="14" fill="#7f7f7f" stroke="#000"/><rect id="svg_15" width="4" height="4" x="2" y="18" fill="#bfbfbf" stroke="#000"/><rect id="svg_16" width="4" height="4" x="6" y="18" fill="#7f7f7f" stroke="#000"/><rect id="svg_17" width="4" height="4" x="10" y="18" fill="#bfbfbf" stroke="#000"/><rect id="svg_18" width="4" height="4" x="14" y="18" fill="#7f7f7f" stroke="#000"/><rect id="svg_19" width="4" height="4" x="18" y="18" fill="#bfbfbf" stroke="#000"/></svg>