<svg xmlns="http://www.w3.org/2000/svg" width="24" height="24"><rect id="1_1" width="5" height="5" x="2" y="2" fill="#7f7f7f" stroke="#000"/><rect id="1_2" width="5" height="5" x="7" y="2" fill="#bfbfbf" stroke="#000"/><rect id="1_3" width="5" height="5" x="12" y="2" fill="#7f7f7f" stroke="#000"/><rect id="1_4" width="5" height="5" x="17" y="2" fill="#bfbfbf" stroke="#000"/><rect id="2_1" width="5" height="5" x="2" y="7" fill="#bfbfbf" stroke="#000"/><rect id="2_2" width="5" height="5" x="7" y="7" fill="#7f7f7f" stroke="#000"/><rect id="2_3" width="5" height="5" x="12" y="7" fill="#bfbfbf" stroke="#000"/><rect id="2_4" width="5" height="5" x="17" y="7" fill="#7f7f7f" stroke="#000"/><rect id="3_1" width="5" height="5" x="2" y="12" fill="#7f7f7f" stroke="#000"/><rect id="3_2" width="5" height="5" x="7" y="12" fill="#bfbfbf" stroke="#000"/><rect id="3_3" width="5" height="5" x="12" y="12" fill="#7f7f7f" stroke="#000"/><rect id="3_4" width="5" height="5" x="17" y="12" fill="#bfbfbf" stroke="#000"/><rect id="4_1" width="5" height="5" x="2" y="17" fill="#bfbfbf" stroke="#000"/><rect id="4_2" width="5" height="5" x="7" y="17" fill="#7f7f7f" stroke="#000"/><rect id="4_3" width="5" height="5" x="12" y="17" fill="#bfbfbf" stroke="#000"/><rect id="4_4" width="5" height="5" x="17" y="17" fill="#7f7f7f" stroke="#000"/></svg>